<svg xmlns="http://www.w3.org/2000/svg" style="display:none">

  <symbol id="sound-on" viewBox="0 0 24 24" fill="none">
    <path d="M9.67536 19.3169C10.1814 19.6329 10.7324 19.7919 11.2864 19.7919C11.7624 19.7919 12.2394 19.6749 12.6904 19.4409C13.7184 18.9059 14.3974 17.8389 14.4594 16.6659C14.6834 13.5699 14.6834 10.4299 14.4594 7.33989C14.3864 6.15089 13.7014 5.08289 12.6714 4.55189C11.7004 4.05189 10.6094 4.09989 9.67536 4.68289L6.75136 6.50989C6.50236 6.66689 6.12036 6.72989 5.77336 6.76089C5.43936 6.78489 5.15636 6.79589 4.90936 6.80389C4.03266 6.83588 3.4532 6.85703 2.68936 7.49189C1.69137 8.32605 1.69635 10.2021 1.70035 11.7103L1.70136 11.9999L1.70036 12.2779C1.69636 13.7889 1.69138 15.6709 2.69236 16.5099C3.46024 17.1418 4.03619 17.1629 4.90997 17.1949C5.15697 17.2029 5.44136 17.2139 5.81536 17.2409C6.14236 17.2409 6.50936 17.3389 6.75236 17.4909L9.67536 19.3169Z" fill="currentColor"/>
    <path d="M17.272 16.3239C17.145 16.3239 17.017 16.2919 16.899 16.2239C16.54 16.0179 16.416 15.5589 16.622 15.1999C17.757 13.2259 17.757 10.7729 16.622 8.79888C16.416 8.43988 16.54 7.98087 16.899 7.77487C17.258 7.57087 17.716 7.69087 17.923 8.05187C19.322 10.4869 19.322 13.5119 17.923 15.9479C17.784 16.1889 17.531 16.3239 17.272 16.3239Z" fill="currentColor"/>
    <path d="M19.2707 18.528C19.4017 18.62 19.5517 18.663 19.6997 18.663C19.9367 18.663 20.1697 18.551 20.3157 18.342C22.9617 14.549 22.9617 9.45295 20.3157 5.65995C20.0777 5.31995 19.6107 5.23795 19.2707 5.47395C18.9307 5.71095 18.8477 6.17795 19.0847 6.51795C21.3727 9.79695 21.3727 14.205 19.0847 17.484C18.8477 17.824 18.9307 18.291 19.2707 18.528Z" fill="currentColor"/>
  </symbol>

  <symbol id="sound-off" viewBox="0 0 24 24" fill="none">
    <path d="M3.35806 20.8789C3.50406 21.0259 3.69606 21.0989 3.88806 21.0989C4.08006 21.0989 4.27206 21.0259 4.41806 20.8789L21.1171 4.18088C21.4091 3.88788 21.4091 3.41288 21.1171 3.11988C20.8241 2.82788 20.3491 2.82788 20.0561 3.11988L16.3278 6.8484C16.3264 6.82743 16.3251 6.80647 16.3238 6.78553C16.2448 5.52053 15.5158 4.38353 14.4208 3.81953C13.3868 3.28853 12.2238 3.33853 11.2288 3.95953L8.08377 5.92253C7.81777 6.09153 7.41477 6.20053 7.02177 6.20153C6.69482 6.22521 6.41349 6.23561 6.16417 6.24484L6.09177 6.24753C5.1522 6.27951 4.52955 6.30071 3.72077 6.97453C2.65354 7.86488 2.65976 9.87163 2.66476 11.484L2.66477 11.4875V12.0665C2.66077 13.6965 2.6558 15.7245 3.72277 16.6245C4.4623 17.2328 5.03879 17.3085 5.83565 17.3411L3.35806 19.8189C3.06506 20.1119 3.06506 20.5859 3.35806 20.8789Z" fill="currentColor"/>
    <path d="M12.9442 20.142C12.3542 20.142 11.7662 19.973 11.2282 19.636L10.1342 18.959C10.0042 18.878 9.91816 18.743 9.90116 18.591C9.88316 18.44 9.93616 18.288 10.0442 18.18L15.6372 12.587C15.7812 12.442 15.9982 12.4 16.1852 12.48C16.3732 12.56 16.4932 12.745 16.4902 12.948C16.4722 14.102 16.4192 15.33 16.3232 16.813C16.2582 18.063 15.5362 19.196 14.4412 19.766C13.9602 20.017 13.4512 20.142 12.9442 20.142Z" fill="currentColor"/>
  </symbol>

  <symbol id="shuffle" viewBox="0 0 24 24" fill="none">
    <path fill-rule="evenodd" clip-rule="evenodd" d="M17.9385 14.2062C17.6425 13.9462 17.2215 13.8842 16.8655 14.0452C16.5075 14.2072 16.2775 14.5632 16.2775 14.9562V16.1372C14.7665 15.6772 13.4255 14.5792 12.4075 11.9982C13.4245 9.41921 14.7665 8.32221 16.2775 7.86221V9.04021C16.2775 9.43421 16.5075 9.79021 16.8655 9.95221C16.9975 10.0112 17.1375 10.0402 17.2775 10.0402C17.5155 10.0402 17.7515 9.95521 17.9385 9.79121L20.8005 7.27121C21.0165 7.08121 21.1405 6.80821 21.1405 6.52021C21.1405 6.23321 21.0175 5.96021 20.8015 5.77021L17.9385 3.24921C17.6425 2.98821 17.2215 2.92821 16.8655 3.08821C16.5075 3.25021 16.2775 3.60621 16.2775 3.99921V5.80121C14.5085 6.20121 12.7315 7.17721 11.3545 9.56421C9.2215 5.52521 6.5025 5.52021 3.8595 5.52021C3.3065 5.52021 2.8595 5.96821 2.8595 6.52021C2.8595 7.07321 3.3065 7.52021 3.8595 7.52021C6.6635 7.52021 8.5405 7.53421 10.2585 11.9982C8.5405 16.4642 6.6635 16.4772 3.8595 16.4772C3.3065 16.4772 2.8595 16.9252 2.8595 17.4772C2.8595 18.0302 3.3065 18.4772 3.8595 18.4772C6.5015 18.4772 9.2215 18.4732 11.3545 14.4332C12.7315 16.8222 14.5085 17.7982 16.2775 18.1972V19.9982C16.2775 20.3912 16.5075 20.7472 16.8655 20.9092C16.9975 20.9682 17.1375 20.9982 17.2775 20.9982C17.5155 20.9982 17.7515 20.9122 17.9385 20.7482L20.8005 18.2282C21.0155 18.0382 21.1395 17.7652 21.1395 17.4772C21.1395 17.1902 21.0165 16.9172 20.8005 16.7272L17.9385 14.2062Z" fill="currentColor"/>
  </symbol>


  <symbol id="refresh" viewBox="0 0 24 24" fill="none">
    <path fill-rule="evenodd" clip-rule="evenodd" d="M7.10849 4.23146C6.87849 4.05146 6.58649 3.98146 6.29149 4.03946L3.07549 4.69846C2.69649 4.77646 2.39549 5.06646 2.30449 5.44246C2.21249 5.81846 2.34749 6.21446 2.64949 6.45746L3.56949 7.19846C2.23449 9.86746 2.27549 13.1085 3.89149 15.8275C4.23149 16.3885 4.60849 16.8935 5.01049 17.3285C5.20849 17.5415 5.47649 17.6485 5.74549 17.6485C5.98849 17.6485 6.23249 17.5615 6.42449 17.3825C6.83049 17.0075 6.85449 16.3755 6.47949 15.9695C6.16749 15.6325 5.87249 15.2365 5.60649 14.7975C4.43249 12.8225 4.34649 10.4945 5.18949 8.50246L6.00249 9.15646C6.18249 9.30246 6.40549 9.37746 6.62949 9.37746C6.78249 9.37746 6.93649 9.34246 7.07949 9.27146C7.42949 9.09446 7.64349 8.72946 7.62849 8.33746L7.49149 4.97846C7.47949 4.68546 7.33949 4.41246 7.10849 4.23146Z" fill="currentColor"/>
    <path fill-rule="evenodd" clip-rule="evenodd" d="M21.4318 6.03497C21.1538 5.75797 20.7398 5.66697 20.3748 5.80497L19.1298 6.26797C17.5178 3.77497 14.7268 2.16797 11.5858 2.16797C10.9608 2.16797 10.3328 2.23197 9.72078 2.35797C9.17978 2.46997 8.83178 2.99897 8.94378 3.53997C9.05578 4.08097 9.58678 4.42997 10.1248 4.31697C10.6048 4.21797 11.0968 4.16797 11.5858 4.16797C13.8698 4.16797 15.9158 5.26097 17.1968 6.98697L16.3428 7.30497C15.9828 7.43797 15.7308 7.76697 15.6958 8.14997C15.6608 8.53397 15.8488 8.90297 16.1788 9.09997L19.0168 10.796C19.1728 10.89 19.3508 10.938 19.5298 10.938C19.6408 10.938 19.7528 10.919 19.8608 10.882C20.1408 10.784 20.3628 10.566 20.4658 10.288L21.6608 7.09197C21.7978 6.72497 21.7078 6.31197 21.4318 6.03497Z" fill="currentColor"/>
    <path fill-rule="evenodd" clip-rule="evenodd" d="M19.5089 12.633C18.9789 12.465 18.4199 12.761 18.2559 13.288C18.1129 13.744 17.9159 14.193 17.6689 14.624C16.5489 16.6 14.6049 17.837 12.4869 18.109L12.6269 17.24C12.6879 16.863 12.5279 16.484 12.2149 16.263C11.9019 16.043 11.4909 16.022 11.1549 16.207L8.25286 17.812C7.99186 17.957 7.80886 18.211 7.75386 18.505C7.69886 18.798 7.77986 19.101 7.97186 19.33L10.1909 21.974C10.3829 22.204 10.6649 22.332 10.9559 22.332C11.0449 22.332 11.1339 22.32 11.2219 22.296C11.5999 22.192 11.8809 21.877 11.9439 21.49L12.1609 20.138C15.1079 19.954 17.8659 18.333 19.4069 15.613C19.7239 15.06 19.9789 14.479 20.1639 13.886C20.3289 13.36 20.0359 12.798 19.5089 12.633Z" fill="currentColor"/>
  </symbol>

  <symbol id="play" viewBox="0 0 24 24" fill="none">
    <path fill-rule="evenodd" clip-rule="evenodd" d="M17.5763 14.9395C15.4973 16.8225 12.8993 18.5165 10.0403 19.6685C7.60725 20.6275 5.56925 19.4315 5.27025 17.0335C4.90625 13.4985 4.91425 10.1145 5.27025 6.9555C5.59625 4.4635 7.84125 3.4055 10.0403 4.3315C12.8553 5.4845 15.3803 7.0495 17.5763 9.0605C19.4523 10.7595 19.4963 13.1745 17.5763 14.9395Z" fill="currentColor"/>
  </symbol>

  <symbol id="stop" viewBox="0 0 24 24" fill="none">
    <path fill-rule="evenodd" clip-rule="evenodd" d="M14.864 14.858C14.718 15.004 14.526 15.078 14.334 15.078C14.142 15.078 13.95 15.004 13.803 14.858L11.997 13.051L10.196 14.853C9.903 15.146 9.428 15.146 9.135 14.853C8.843 14.56 8.843 14.086 9.135 13.793L10.936 11.991L9.134 10.188C8.841 9.895 8.841 9.421 9.134 9.128C9.427 8.835 9.901 8.835 10.194 9.128L11.997 10.93L13.798 9.129C14.091 8.837 14.565 8.837 14.858 9.129C15.151 9.422 15.151 9.897 14.858 10.19L13.058 11.991L14.864 13.797C15.157 14.09 15.157 14.565 14.864 14.858ZM16.217 2.5H7.782C4.622 2.5 2.5 4.72 2.5 8.026V15.974C2.5 19.279 4.622 21.5 7.782 21.5H16.216C19.376 21.5 21.5 19.279 21.5 15.974V8.026C21.5 4.72 19.377 2.5 16.217 2.5Z" fill="currentColor"/>
  </symbol>

  <symbol id="pause" viewBox="0 0 24 24" fill="none">
    <path fill-rule="evenodd" clip-rule="evenodd" d="M8.58963 3.5H6.27563C5.44863 3.5 4.77563 4.173 4.77563 5V19C4.77563 19.827 5.44863 20.5 6.27563 20.5H8.58963C9.41663 20.5 10.0896 19.827 10.0896 19V5C10.0896 4.173 9.41663 3.5 8.58963 3.5Z" fill="currentColor"/>
    <path fill-rule="evenodd" clip-rule="evenodd" d="M17.7243 3.5H15.4103C14.5833 3.5 13.9103 4.173 13.9103 5V19C13.9103 19.827 14.5833 20.5 15.4103 20.5H17.7243C18.5513 20.5 19.2243 19.827 19.2243 19V5C19.2243 4.173 18.5513 3.5 17.7243 3.5Z" fill="currentColor"/>
  </symbol>

</svg>
