<svg xmlns="http://www.w3.org/2000/svg" style="display:none">

  <symbol id="shuffle" viewBox="0 0 24 24" fill="none">
    <path fill-rule="evenodd" clip-rule="evenodd" d="M17.9385 14.2062C17.6425 13.9462 17.2215 13.8842 16.8655 14.0452C16.5075 14.2072 16.2775 14.5632 16.2775 14.9562V16.1372C14.7665 15.6772 13.4255 14.5792 12.4075 11.9982C13.4245 9.41921 14.7665 8.32221 16.2775 7.86221V9.04021C16.2775 9.43421 16.5075 9.79021 16.8655 9.95221C16.9975 10.0112 17.1375 10.0402 17.2775 10.0402C17.5155 10.0402 17.7515 9.95521 17.9385 9.79121L20.8005 7.27121C21.0165 7.08121 21.1405 6.80821 21.1405 6.52021C21.1405 6.23321 21.0175 5.96021 20.8015 5.77021L17.9385 3.24921C17.6425 2.98821 17.2215 2.92821 16.8655 3.08821C16.5075 3.25021 16.2775 3.60621 16.2775 3.99921V5.80121C14.5085 6.20121 12.7315 7.17721 11.3545 9.56421C9.2215 5.52521 6.5025 5.52021 3.8595 5.52021C3.3065 5.52021 2.8595 5.96821 2.8595 6.52021C2.8595 7.07321 3.3065 7.52021 3.8595 7.52021C6.6635 7.52021 8.5405 7.53421 10.2585 11.9982C8.5405 16.4642 6.6635 16.4772 3.8595 16.4772C3.3065 16.4772 2.8595 16.9252 2.8595 17.4772C2.8595 18.0302 3.3065 18.4772 3.8595 18.4772C6.5015 18.4772 9.2215 18.4732 11.3545 14.4332C12.7315 16.8222 14.5085 17.7982 16.2775 18.1972V19.9982C16.2775 20.3912 16.5075 20.7472 16.8655 20.9092C16.9975 20.9682 17.1375 20.9982 17.2775 20.9982C17.5155 20.9982 17.7515 20.9122 17.9385 20.7482L20.8005 18.2282C21.0155 18.0382 21.1395 17.7652 21.1395 17.4772C21.1395 17.1902 21.0165 16.9172 20.8005 16.7272L17.9385 14.2062Z" fill="currentColor"/>
  </symbol>

</svg>
